<?xml version="1.0" encoding="utf-8"?>
<!-- Generator: Adobe Illustrator 27.2.0, SVG Export Plug-In . SVG Version: 6.00 Build 0)  -->
<svg version="1.1" id="new" xmlns="http://www.w3.org/2000/svg" xmlns:xlink="http://www.w3.org/1999/xlink" x="0px" y="0px"
	 viewBox="0 0 500 160" style="enable-background:new 0 0 500 160;" xml:space="preserve">
<style type="text/css">
	.st0{fill:#C0C0C0;}
	.st1{fill:#BFE6FF;}
</style>
<g>
	<g>
		<path class="st0" d="M260.4,58.3c0,4.1-1.6,9.6-4.9,16.3c-3.3,6.7-7.8,13.8-13.6,21.2c-5.8,7.4-12.4,14.6-19.9,21.4
			c-14,12.8-25.8,19.1-35.4,19.1c-4.9,0-8.2-2-10-5.9c-0.5-1.2-0.7-2.5-0.7-3.8c0-4.3,1.5-8.8,4.5-13.5c5.7-8.8,14.1-16.4,25-22.7
			c1-7.9,4.7-15.9,10.9-23.9s13.1-14,20.8-17.8c3.5-1.8,6.8-2.6,10.1-2.6s6.1,0.9,8.6,2.6C258.9,51,260.5,54.2,260.4,58.3
			L260.4,58.3z M212.3,102.5c-2.2,0-4-0.8-5.3-2.3c-14.3,9.7-22.4,18-24.4,24.8c-0.2,1-0.4,1.9-0.4,2.7c0,2.2,1.4,3.8,4.1,4.7
			c1,0.3,2,0.5,3,0.5c3.1,0,6.1-0.6,9.1-1.9c7.8-3.2,16.2-9.4,25.4-18.7c9.2-9.2,16.6-18.8,22.3-28.5c5.7-9.7,8.5-17.4,8.5-23.1
			c0-4.7-1.5-7.8-4.5-9.3c-1.1-0.6-2.7-0.9-4.5-0.9s-4.2,0.4-7,1.3c-8.1,2.8-14.8,7.5-20,14.1c-5.2,6.6-8.4,14.2-9.5,22.7
			c6.2-3,12-4.6,17.4-4.6c5.1,0,8,1.4,8.6,4.2c0.2,0.7,0.2,1.1,0.2,1.2c-0.1,0.1-0.2,0.1-0.5,0c-0.5-0.2-1.3-0.4-2.5-0.4
			c-5.3,0-12.9,3.2-22.9,9.6c0.7,1.8,1.8,2.7,3.2,2.8c0.4,0.1,0.6,0.2,0.6,0.6S212.9,102.4,212.3,102.5L212.3,102.5z"/>
		<path class="st0" d="M274.5,92.9c3.2-1.8,4.8-3.6,4.8-5.4s-1.1-2.7-3.3-2.7c-1,0-2.1,0.3-3.3,0.8c-2.5,1.1-5,3.2-7.4,6
			c-2.9,3.5-4.4,6.8-4.4,9.8c0,1.1,0.3,2.2,1,3.2c0.6,1,1.8,1.5,3.4,1.5c2.9,0,6.5-1.5,10.8-4.5c4.4-3,8.1-6,11.3-9.1
			c0.7-0.7,1.1-0.8,1.1-0.1c0,0.4-0.2,0.8-0.5,1.1c-2.2,2.1-3.8,3.4-4.5,4.1s-2.3,1.9-4.5,3.7c-2.2,1.8-4.1,3.1-5.5,3.8
			c-4.3,2.2-8,3.4-11,3.4s-5.4-0.7-7.1-2.1c-1.7-1.4-2.6-3.3-2.6-5.7c0-5.2,2.3-9.6,6.9-13.3c4.6-3.7,9.4-5.6,14.5-5.6
			c3.4,0,5.7,0.7,6.8,2.2c0.5,0.7,0.7,1.5,0.7,2.3s-0.3,1.7-0.8,2.7c-1.1,1.9-3.1,3.5-6.1,5c-3,1.4-5.8,2.1-8.5,2.1
			c-1,0-1.6-0.1-1.7-0.3c-0.1-0.2,0-0.3,0.2-0.4c0.2-0.1,0.6-0.1,1-0.1C268.4,95.4,271.2,94.6,274.5,92.9L274.5,92.9z"/>
		<path class="st0" d="M325.5,94.4c-0.3,1.1-0.5,2.1-0.5,3.1s0.4,1.4,1.1,1.4s2-0.7,3.7-2.1s2.8-2.4,3.4-2.9
			c0.5-0.6,0.8-0.5,0.8,0.3c0,0.3-0.1,0.6-0.3,0.7c-1.9,1.9-3.4,3.2-4.3,3.9c-1.7,1.3-3.1,2-4.4,2c-1.9,0-3-1.1-3.3-3.3
			c-5.8,6.9-10.5,10.3-13.9,10.3c-2.1,0-3.7-0.5-4.7-1.4c-1-0.9-1.5-1.9-1.5-2.9s0.1-2.3,0.5-3.7c-4.9,5.3-8.8,8-11.9,8
			c-2.1,0-3.7-0.5-4.7-1.4c-1-0.9-1.5-2-1.5-3.1c0-2.2,0.4-4,1.2-5.3c0.8-1.3,2.1-3,4-5.3c-3.8,3.2-5.9,5-6.2,5.3
			c-0.3,0.3-0.5,0.2-0.6-0.2c0-0.6,0.3-1.1,1-1.7c1.5-1.1,3.7-3.2,6.9-6.4c3.1-3.2,5.3-5,6.5-5.6s2.1-0.9,2.9-0.9s1.3,0.1,1.7,0.3
			c0.4,0.2,0.5,0.4,0.3,0.7c-1.8,1.8-3.5,4.2-5.2,7.5c-2.3,4.5-3.5,8.1-3.5,10.7c0,0.4,0,0.8,0.1,1.1c0.4,1.1,1.5,1.1,3.5-0.3
			c0.7-0.5,1.6-1.1,2.5-2s3-3.2,6.1-7.2c3.1-4,5.3-6.3,6.6-7c1.3-0.7,2.3-1,3.1-1s1.4,0.2,1.9,0.6c0.5,0.4,0.6,0.7,0.3,1
			c-3.1,3.3-5.2,7.5-6.3,12.6c-0.4,2.1-0.3,3.3,0.1,3.6c0.4,0.3,0.8,0.4,1.2,0.4c0.4,0,0.9-0.2,1.4-0.5c2.4-1.3,5.2-3.9,8.2-7.7
			c0.2-5.7,1.4-9.8,3.7-12.4c1-1.2,2.9-1.8,5.6-1.8c1.2,0,1.8,0.4,1.6,1.1l-0.5,0.9C328.5,88.2,326.2,91.8,325.5,94.4L325.5,94.4z"
			/>
		<path class="st0" d="M352.8,92.9c3.2-1.8,4.8-3.6,4.8-5.4s-1.1-2.7-3.3-2.7c-1,0-2.1,0.3-3.3,0.8c-2.5,1.1-5,3.2-7.4,6
			c-2.9,3.5-4.4,6.8-4.4,9.8c0,1.1,0.3,2.2,1,3.2c0.6,1,1.8,1.5,3.4,1.5c2.9,0,6.5-1.5,10.8-4.5c4.4-3,8.1-6,11.3-9.1
			c0.7-0.7,1.1-0.8,1.1-0.1c0,0.4-0.2,0.8-0.5,1.1c-2.2,2.1-3.8,3.4-4.5,4.1s-2.3,1.9-4.5,3.7c-2.2,1.8-4.1,3.1-5.5,3.8
			c-4.3,2.2-8,3.4-11,3.4s-5.4-0.7-7.1-2.1c-1.7-1.4-2.6-3.3-2.6-5.7c0-5.2,2.3-9.6,6.9-13.3c4.6-3.7,9.4-5.6,14.5-5.6
			c3.4,0,5.7,0.7,6.8,2.2c0.5,0.7,0.7,1.5,0.7,2.3s-0.3,1.7-0.8,2.7c-1.1,1.9-3.1,3.5-6.1,5c-3,1.4-5.8,2.1-8.5,2.1
			c-1,0-1.6-0.1-1.7-0.3c-0.1-0.2,0-0.3,0.2-0.4c0.2-0.1,0.6-0.1,1-0.1C346.6,95.4,349.5,94.6,352.8,92.9L352.8,92.9z"/>
		<path class="st0" d="M369.5,103.4c0,1.6,0.8,2.5,2.5,2.5c1,0,2.5-0.4,4.6-1.2c2.1-0.8,4.8-2.5,8.1-5.2s5.6-4.6,6.7-5.8
			c1.1-1.2,1.9-1.8,2.1-1.7s0.3,0.2,0.3,0.6c-0.1,0.3-0.2,0.6-0.5,0.9c-5.2,5.3-9.4,9.1-12.8,11.4c-3.4,2.3-6.6,3.5-9.5,3.5
			c-2.5,0-4.2-0.6-5.2-1.7s-1.5-2.5-1.5-4c0-2.7,1-6,2.9-9.8c-3.5,3.8-5.3,5-5.3,3.6c0-0.2,0.2-0.5,0.5-0.8c2.9-2.3,5.9-5.6,9.2-10
			c6-7.8,10.7-14.7,14.1-20.7c0.6-1.1,0.9-2,0.9-2.6c0-1.3-0.7-1.5-2.1-0.7c-1.6,0.8-2.4,1.1-2.5,0.9s0-0.4,0.3-0.7
			c1.5-1.1,3.5-2.1,6-3.1c2.5-1,4.6-1.5,6.3-1.6c2.5,0,3.8,0.8,3.8,2.4c0,0.9-0.4,2.1-1.3,3.6c-0.9,1.5-3.4,4.5-7.5,9.1
			c-4.2,4.5-6.7,7.4-7.6,8.5c-6.2,8.2-10.2,14.7-11.9,19.6C369.7,101.5,369.5,102.5,369.5,103.4L369.5,103.4z"/>
		<path class="st0" d="M414.5,88.9c-2.7,3.1-4.8,5.9-6.5,8.5s-2.5,4.4-2.5,5.5s0.6,1.6,1.9,1.6s3.8-1.2,7.6-3.7
			c3.9-2.5,7.4-5.3,10.7-8.4c0.3-0.3,0.6-0.4,0.8-0.4c0.2,0.1,0.4,0.2,0.4,0.4s-0.1,0.5-0.4,0.8c-7.8,7.2-13.8,11.6-17.9,13.5
			c-1.8,0.7-3.1,1.1-3.9,1.1c-2.9,0-4.9-0.5-6-1.5s-1.6-2-1.6-3.2c0-2.3,0.5-4.1,1.4-5.3c3-4.2,5.3-7.7,7.1-10.6
			c0.5-0.9,0.4-1.4-0.3-1.8s-1.7-0.5-2.8-0.5s-1.7,0-1.8-0.1c-4.1,5.5-8.1,9.8-12.1,12.9c-0.5,0.4-0.8,0.4-0.8,0
			c0-0.5,0.3-1.1,1-1.7c4.2-3.6,7.7-7.5,10.5-11.6c-0.5-0.4-0.8-0.9-0.8-1.5s0-1.4,0.1-2.3c0.1-0.9,0.6-2.1,1.4-3.6
			c1.5-2.6,3-3.8,4.5-3.8c1.3,0,2,0.7,2,2.2c0,2-0.9,4.2-2.8,6.6c-0.9,1.1-1.8,1.9-2.5,2.4c2.2-0.7,5.5-1.1,9.8-1.1
			c2.1,0,3.6,0.8,4.5,2.4c0.1,0.2,0.2,0.6,0.2,1.1S415.3,87.9,414.5,88.9L414.5,88.9z"/>
		<path class="st0" d="M438.2,86.7c0.7-0.8,1.1-1.5,1.1-2s-0.4-0.8-1.1-0.8s-1.8,0.6-3.3,1.6c-1.5,1.1-3.7,3-6.7,5.8
			c-3,2.8-4.8,4.4-5.3,4.9c-0.6,0.5-0.9,0.5-0.9,0.1s0.4-1,1.1-1.6c0.8-0.6,2.5-2.4,5.3-5.1s4.9-4.8,6.4-5.9
			c1.5-1.1,3.2-1.7,5.2-1.7c2.2,0,3.7,0.8,4.5,2.5c0.4,0.6,0.5,1.4,0.5,2.4s-0.2,2.1-0.7,3.2c-0.5,1.2-1,2.2-1.7,3.2
			c-0.6,0.9-1.5,2.1-2.5,3.4s-2,2.7-2.9,4c-0.9,1.3-1.4,2.3-1.4,2.9s0.2,0.9,0.7,0.9c2.4,0,6.8-3.9,13.3-11.8
			c3.1-3.7,5.7-7.2,7.9-10.4c1.9-4.5,3.6-6.9,5.1-7.4c0.5-0.2,1.2-0.3,2-0.3s1.4,0.3,1.7,1c0.4,0.7,0.5,1.2,0.5,1.6
			s-0.3,0.6-0.8,0.9c-0.5,0.2-1,0.3-1.4,0.3c-0.4,0-0.6-0.1-0.8-0.1c-1.8,0-3.2,1.3-4.5,3.8c-0.7,1.6-1.6,4.1-2.8,7.6
			c-1.1,3.5-2.2,6.6-3.1,9.6c-1,2.9-2.6,6.3-4.8,10.2c-2.2,3.9-5,7.5-8.2,10.9s-7,6.2-11.4,8.6s-8.9,3.5-13.5,3.5s-8.5-1.1-11.6-3.2
			c-3.1-2.1-5-5.4-5.8-9.8c0-0.3,0.1-0.5,0.2-0.6s0.3-0.1,0.5,0c0.2,0.1,0.3,0.3,0.3,0.6c0.6,3.4,2.2,6.2,4.9,8.3
			c2.6,2.1,5.7,3.2,9.1,3.2c4.5,0,9.2-1.8,14-5.2c4.8-3.5,9.2-8.1,13.4-13.8c4.2-5.7,9.1-14,14.7-24.9c-1.4,2.1-3.1,4.4-5,6.9
			c-7.6,9.4-13.4,14-17.5,14c-3.1,0-4.6-1.5-4.6-4.4c0-1,0.2-2.2,0.6-3.6C429.8,97.2,432.9,92.9,438.2,86.7L438.2,86.7z"/>
	</g>
	<g>
		<path class="st0" d="M164.7,81.2c-4.1-9.8-11.9-17.5-21.9-21.6c-10-4.1-21-4.1-30.9,0C92,67.8,82.1,89.8,89.4,109.9
			c0.8,2.3,3.4,3.5,5.7,2.7c2.3-0.8,3.5-3.3,2.7-5.6c-3.5-9.7-1.9-19.9,3.5-27.8c1.2,1.7,2.2,3.5,3,5.5c3.2,7.7,3.2,16.1,0,23.8
			c-3.2,7.7-9.3,13.7-17,16.8c-7.8,3.2-16.3,3.2-24.1,0c-7.8-3.2-13.8-9.1-17-16.8c-3.2-7.7-3.2-16.1,0-23.8
			c3.2-7.7,9.3-13.7,17-16.8c7.6-3.1,16.1-3.2,23.7-0.2c2.3,0.9,4.9-0.2,5.8-2.4s-0.2-4.8-2.5-5.7c-6.2-2.5-12.9-3.3-19.4-2.6l0-13
			c0-1.1-0.8-2-1.9-2.2l-16.3-2.2c-0.8-0.1-1.6,0.2-2.1,0.9l-9.9,13c-0.7,0.9-0.6,2.1,0.2,2.9l9.3,9.2c-5.3,4.2-9.4,9.6-12.1,15.9
			c-4.1,9.8-4.1,20.7,0,30.5c4.1,9.8,11.9,17.5,21.9,21.6c5,2,10.2,3.1,15.4,3.1s10.5-1,15.5-3.1c3.9-1.6,7.5-3.8,10.6-6.4
			c7.4,6.1,16.7,9.4,26.2,9.4c5.2,0,10.4-1,15.4-3c10-4.1,17.7-11.7,21.8-21.6C168.8,101.8,168.8,91,164.7,81.2L164.7,81.2
			L164.7,81.2z M45.2,54.4l8-10.4l13.1,1.8l0,11.8c-2.2,0.5-4.4,1.2-6.6,2.1c-2.1,0.9-4.2,2-6.1,3.2L45.2,54.4L45.2,54.4z
			 M156.5,108.3c-3.2,7.7-9.3,13.7-17,16.8c-10.8,4.4-23.2,2.4-32-4.7c2-2.7,3.8-5.6,5.1-8.8c4.1-9.8,4.1-20.7,0-30.5
			c-1.3-3.1-3-6.1-5.1-8.8c2.3-1.9,5-3.5,7.9-4.7c16-6.6,34.5,1,41.1,16.8C159.6,92.2,159.7,100.6,156.5,108.3L156.5,108.3
			L156.5,108.3z"/>
		<polygon class="st1" points="56,41.6 70,40 55.9,37.9 64.5,26.6 53.4,35.1 51.8,21.1 49.6,35.2 38.3,26.6 46.9,37.7 32.9,39.3 
			47,41.5 38.3,52.8 49.5,44.2 51.1,58.2 53.2,44.1 64.5,52.8 		"/>
	</g>
</g>
</svg>
